

<svg width="856" height="499" viewBox="0 0 856 499" fill="none" xmlns="http://www.w3.org/2000/svg">
<path d="M329.67 392.123C329.719 390.512 327.166 390.314 327.097 391.971C326.975 395.669 326.065 399.299 324.426 402.626C324.25 402.436 324.03 402.291 323.786 402.202C323.541 402.113 323.279 402.083 323.02 402.114C318.516 403.236 314.501 405.762 311.573 409.316C309.707 411.604 307.27 413.375 304.5 414.455C301.731 415.535 298.723 415.887 295.773 415.476C290.005 414.643 284.127 414.979 278.498 416.463C273.068 418.491 268.442 422.815 262.551 423.4C255.979 424.086 249.61 420.779 242.976 421.414C236.918 422.518 231.147 424.804 226.001 428.14C216.513 433.161 214.572 431.549 204.725 429.626C188.18 426.333 184.614 438.777 169.231 436.583C163.521 435.818 156.994 434.575 152.422 438.868C147.863 433.857 148.89 420.118 148.962 415.431C148.961 414.649 147.687 414.33 147.541 415.154C144.846 427.807 146.557 443.171 160.591 448.251C172.983 452.767 193.549 449.686 207.37 447.633C232.791 443.906 278.701 434.378 301.712 424.861C315.546 419.173 329.179 408.185 329.67 392.123ZM246.829 361.125C243.305 364.57 240.7 368.819 239.243 373.495C244.005 375.192 248.842 377.241 253.752 378.947C255.968 371.151 260.782 364.32 267.418 359.553L267.366 359.549C263.813 358.257 260.462 356.479 257.41 354.267C253.461 355.848 249.866 358.178 246.829 361.125Z" fill="#191919"/>
<path d="M156.762 416.487C167.921 419.759 177.32 414.938 197.291 415.578C211.705 416.129 226.054 418.651 240.532 418.125C255.01 417.6 268.932 413.249 282.799 409.732C294.303 406.82 306.954 404.61 316.826 397.61C329.908 388.353 329.73 375.075 320.48 370.452C312.464 366.524 301.362 368.894 288.361 368.906C285.144 363.152 274.915 361.888 269.469 360.449C268.88 360.751 268.314 361.096 267.775 361.481C261.589 366.035 256.973 372.385 254.563 379.655C262.711 382.956 271.775 383.263 280.131 380.522C283.926 379.073 289.148 375.342 289.048 371.201C297.213 370.438 305.428 370.363 313.605 370.976C328.052 372.933 327.808 386.147 315.869 395.181C306.908 401.89 295.101 404.003 284.502 406.675C272.043 410.411 259.328 413.247 246.459 415.161C233.442 415.847 220.39 415.326 207.471 413.603C195.197 412.335 182.806 412.731 170.638 414.782C153.55 416.471 146.474 409.323 145.465 398.826C145.238 393.559 145.553 388.282 146.408 383.079C147.091 377.459 149.385 370.553 156.583 373.487C162.33 375.843 165.063 382.194 170.694 384.902C172.959 385.984 175.454 386.505 177.966 386.421C180.478 386.338 182.933 385.652 185.122 384.421C189.254 381.369 192.771 377.569 195.489 373.221C198.81 369.015 203.446 366.032 208.663 364.743C211.599 367.302 215.379 368.698 219.284 368.665C220.81 362.368 224 356.591 228.524 351.933C233.048 347.274 238.741 343.903 245.013 342.168C242.023 337.47 237.375 334.054 231.982 332.591C228.556 332.026 225.042 332.322 221.76 333.453C218.477 334.583 215.531 336.511 213.187 339.062C210.542 342.033 208.753 345.659 208.008 349.557C207.776 349.736 207.608 349.986 207.532 350.268C206.026 354.361 205.985 358.844 207.414 362.963C195.392 365.775 193.183 373.949 187.155 379.836C184.686 382.358 181.313 383.801 177.776 383.852C174.239 383.902 170.827 382.554 168.289 380.103C164.207 376.407 161.032 371.554 155.314 370.379C153.592 369.891 151.754 370.008 150.108 370.708C148.462 371.409 147.108 372.651 146.273 374.227C145.98 373.584 145.539 373.018 144.987 372.575C140.856 369.044 134.145 374.8 136.39 380.683C137.013 382.09 137.986 383.318 139.216 384.249C140.811 385.717 142.099 387.482 143.009 389.445C142.043 395.588 142.832 401.878 145.288 407.595C146.513 409.759 148.158 411.659 150.128 413.186C152.098 414.713 154.353 415.835 156.762 416.487ZM140.208 381.102C139.743 380.551 139.397 379.911 139.189 379.222C138.982 378.533 138.918 377.81 139.002 377.095C139.136 376.43 139.473 375.823 139.968 375.355C140.462 374.888 141.089 374.584 141.763 374.484C144.181 374.428 144.15 377.697 144.292 379.031C143.875 380.68 143.577 382.356 143.401 384.046C142.387 383.002 141.112 382.037 140.225 381.103L140.208 381.102Z" fill="#191919"/>
<path d="M222.111 369.272C226.982 370.135 231.782 371.354 236.472 372.918C237.891 368.085 240.488 363.671 244.034 360.064C247.086 356.958 250.682 354.427 254.648 352.592C252.004 350.336 249.643 347.775 247.615 344.964C241.549 346.376 235.98 349.378 231.492 353.655C227.004 357.932 223.764 363.327 222.111 369.272ZM569.12 366.16C568.831 364.519 566.309 365.06 566.612 366.697C567.25 370.344 567.093 374.084 566.151 377.665C565.917 377.526 565.656 377.437 565.385 377.404C565.114 377.371 564.84 377.394 564.579 377.473C560.303 379.573 556.828 382.983 554.67 387.196C553.281 389.768 551.239 391.938 548.747 393.494C546.255 395.051 543.397 395.94 540.452 396.074C534.695 396.393 529.069 397.899 523.933 400.493C518.776 403.768 514.98 409.238 508.744 410.688C502.406 412.18 495.766 410.415 489.482 412.594C483.94 414.997 478.908 418.413 474.648 422.664C467.145 428.992 464.089 428.071 455.034 428.038C442.572 428.018 437.874 435.033 431.522 438.922C428.329 440.868 424.671 441.939 420.922 442.028C415.203 442.328 408.737 442.602 405.164 447.624C405.067 447.571 405.025 447.47 404.928 447.416C399.197 441.385 398.457 432.948 396.981 425.255C396.938 425.089 396.838 424.943 396.697 424.843C396.556 424.743 396.384 424.696 396.211 424.709C396.038 424.723 395.876 424.796 395.753 424.917C395.629 425.038 395.553 425.197 395.538 425.368C395.489 438.613 400.557 453.339 415.564 455.356C428.376 457.093 447.159 450.257 460.55 445.391C484.294 436.807 527.239 418.479 548.158 404.323C560.72 395.696 571.971 382.22 569.12 366.16ZM459.526 364.907C464.481 364.787 469.439 365.029 474.358 365.63C474.788 360.487 476.5 355.53 479.338 351.203C481.685 347.714 484.6 344.634 487.965 342.089C484.913 340.393 482.073 338.347 479.505 335.992C473.87 338.608 469.045 342.669 465.532 347.753C462.019 352.838 459.945 358.761 459.526 364.907Z" fill="#191919"/>
<path d="M408.24 423.632C419.195 423.369 425.062 417.658 446.941 414.237C460.669 412.153 474.647 411.651 488.15 408.326C501.412 404.303 514.217 398.926 526.359 392.282C537.463 386.909 550.165 382.109 558.591 372.743C569.047 361.091 565.958 348.8 556.713 346.098C550.398 344.203 543.301 346.238 537.174 347.793C522.755 351.468 524.828 350.992 524.337 350.713C520.354 346.264 509.116 346.833 504.11 346.483C498.173 352.321 494.432 360.001 493.51 368.243C501.833 369.733 510.421 368.39 517.877 364.43C521.415 362.332 526.842 357.597 525.626 353.114C532.949 351.436 540.112 349.107 547.589 348.127C563.631 346.058 566.646 358.844 557.501 370.148C550.243 378.988 538.795 383.514 528.712 388.366C517.219 394.533 505.294 399.872 493.029 404.343C476.028 409.674 457.342 409.43 439.193 412.993C423.966 416.1 414.642 422.343 404.098 420.827C401.18 420.43 398.427 419.249 396.139 417.41C393.851 415.572 392.114 413.147 391.118 410.398C389.527 405.557 388.631 400.518 388.454 395.429C388.019 390.302 386.877 381.307 394.582 381.464C400.907 381.591 405.157 387.386 410.822 389.485C413.173 390.326 415.691 390.6 418.17 390.286C420.648 389.971 423.016 389.077 425.077 387.677C434.036 381.377 431.683 369.125 445.51 362.785C448.848 364.682 452.772 365.298 456.537 364.515L456.684 364.524C456.85 358.861 458.38 353.32 461.146 348.363C463.912 343.406 467.834 339.177 472.584 336.029C473.774 335.213 475.11 334.362 476.491 333.56C472.802 329.747 467.87 327.353 462.57 326.804C459.115 326.803 455.714 327.661 452.678 329.299C449.642 330.937 447.069 333.303 445.193 336.181C441.158 342.379 439.587 355.945 443.936 361.319C431.843 366.815 432.267 376.129 426.568 383.154C421.443 389.426 413.66 388.916 407.475 384.776C403.148 381.938 398.807 378.381 393.28 378.985C391.719 379.142 390.236 379.742 389.011 380.715C387.786 381.688 386.871 382.991 386.376 384.468C385.896 383.837 385.267 383.334 384.544 383.002C383.822 382.671 383.028 382.521 382.233 382.566C381.438 382.611 380.666 382.85 379.986 383.261C379.306 383.672 378.739 384.243 378.335 384.924C377.532 386.041 377.07 387.364 377.006 388.734C376.942 390.105 377.277 391.465 377.973 392.651C378.897 393.961 380.145 395.014 381.596 395.71C383.382 396.692 384.909 398.077 386.056 399.752C386.869 400.661 386.747 411.988 393.49 418.485C395.476 420.277 397.805 421.656 400.339 422.541C402.873 423.425 405.559 423.796 408.24 423.632ZM381.839 392.306C380.138 391.069 379.01 387.576 381.274 386.091C383.745 384.472 384.888 386.842 385.529 389.334C385.473 391.103 385.512 392.874 385.645 394.639C384.408 393.779 382.916 393.097 381.839 392.306Z" fill="#191919"/>
<path d="M476.327 366.064C481.336 366.789 486.475 367.888 491.633 368.584C492.208 360.472 495.513 352.786 501.019 346.753C497.263 346.194 493.606 345.109 490.159 343.53C486.3 346.025 483.055 349.344 480.662 353.244C478.268 357.143 476.787 361.523 476.327 366.064ZM207.287 57.3816C205.91 57.2058 201.599 58.9105 201.267 56.9754C201.009 55.488 198.752 55.9922 198.959 57.4765C199.126 58.2425 199.547 58.9316 200.154 59.435C200.76 59.9384 201.519 60.2275 202.31 60.2566C203.414 60.2644 204.511 60.098 205.562 59.7637C206.318 59.6165 207.099 59.6467 207.842 59.8519C208.585 60.0571 209.269 60.4316 209.839 60.9454C209.998 61.0489 210.188 61.0975 210.378 61.0838C210.568 61.0701 210.749 60.9947 210.891 60.8694C211.034 60.7441 211.131 60.5757 211.167 60.3904C211.203 60.2051 211.177 60.0131 211.092 59.8441C210.706 59.1597 210.158 58.5781 209.495 58.1492C208.833 57.7204 208.075 57.4569 207.287 57.3816ZM216.823 71.0894C215.974 71.6474 215.002 71.9947 213.989 72.102C213.71 72.1569 213.464 72.3192 213.306 72.5533C213.149 72.7874 213.091 73.0741 213.147 73.3502C213.202 73.6263 213.366 73.8693 213.603 74.0257C213.839 74.1821 214.129 74.2391 214.408 74.1842C216.515 73.7703 220.414 72.334 220.226 69.6713C219.769 67.9583 219.14 66.2947 218.349 64.7052C218.068 62.8222 217.649 60.9618 217.095 59.1387C217.027 59.0062 216.921 58.8968 216.79 58.8245C216.658 58.7522 216.508 58.7202 216.359 58.7326C216.209 58.745 216.067 58.8014 215.95 58.8943C215.832 58.9873 215.746 59.1127 215.701 59.2546C215.323 62.5862 215.914 65.9555 217.403 68.967C217.731 70.0151 217.907 70.2665 216.823 71.0894ZM204.492 72.6231C204.387 72.4361 204.225 72.2869 204.029 72.1969C203.833 72.1069 203.613 72.0809 203.401 72.1225C203.189 72.1641 202.996 72.2712 202.85 72.4285C202.704 72.5857 202.611 72.7849 202.587 72.9973C201.944 77.1306 199.234 85.9977 204.755 88.1351C209.854 90.1056 213.581 83.0589 214.549 79.2978C214.579 78.916 214.47 78.5362 214.244 78.2257C214.017 77.9153 213.687 77.6944 213.312 77.6021C211.548 77.5244 209.828 77.0324 208.295 76.1666C206.761 75.3008 205.458 74.0862 204.492 72.6231ZM212.432 79.0741C211.692 81.4416 210.314 83.5644 208.447 85.2145C208.071 85.4736 207.639 85.6419 207.185 85.7058C206.731 85.7698 206.269 85.7277 205.835 85.5828C205.4 85.438 205.006 85.1945 204.684 84.8718C204.362 84.5491 204.121 84.1562 203.979 83.7246C203.586 80.9685 203.72 78.164 204.374 75.4572C205.404 76.5643 206.648 77.4551 208.032 78.0765C209.416 78.6979 210.913 79.0371 212.432 79.0741ZM328.428 148.456C326.853 151.862 326.065 155.574 326.124 159.32C326.182 163.067 327.085 166.753 328.767 170.111C328.866 170.286 329.024 170.421 329.214 170.492C329.403 170.564 329.612 170.568 329.804 170.503C329.996 170.438 330.159 170.308 330.264 170.137C330.37 169.966 330.412 169.763 330.382 169.564C329.251 162.236 327.033 160.943 330.172 149.101C330.259 148.872 330.249 148.618 330.147 148.396C330.045 148.174 329.857 148.001 329.626 147.915C329.394 147.829 329.138 147.838 328.914 147.94C328.689 148.041 328.514 148.227 328.428 148.456ZM198.662 362.857C187.618 360.394 171.399 362.504 160.417 365.314C159.362 317.578 160.457 268.988 174.807 223.421C176.64 217.644 178.912 211.941 180.6 206.113C180.851 205.194 179.512 204.383 179.012 205.331C171.069 220.42 164.823 248.794 162.122 265.651C157.449 299.168 156.034 333.053 157.896 366.84C157.951 367.579 158.598 368.4 159.451 368.158C177.351 362.945 188.578 364.837 198.244 364.898C199.435 364.912 199.932 363.138 198.662 362.857ZM109.77 292.626C106.107 290.986 104.517 287.707 101.975 284.85C101.788 284.646 101.534 284.515 101.258 284.481C100.982 284.448 100.703 284.513 100.472 284.666C100.241 284.819 100.073 285.049 99.9993 285.314C99.9252 285.579 99.9498 285.862 100.069 286.11C101.014 288.36 102.447 290.376 104.266 292.017C106.085 293.658 108.246 294.884 110.596 295.607C112.386 296.151 114.305 296.121 116.076 295.52C117.848 294.92 119.382 293.779 120.458 292.262C126.301 295.136 132.302 297.684 138.432 299.893C140.903 300.826 144.1 302.044 146.263 299.816C146.618 299.431 146.888 298.976 147.055 298.482C147.223 297.988 147.285 297.464 147.237 296.945C147.189 296.425 147.032 295.921 146.777 295.465C146.522 295.009 146.174 294.61 145.755 294.294C141.404 289.978 137.581 290.227 118.779 270.631C118.721 270.567 118.65 270.514 118.572 270.477C118.493 270.439 118.408 270.417 118.321 270.412C118.234 270.407 118.146 270.419 118.064 270.448C117.982 270.476 117.906 270.52 117.84 270.578C117.775 270.635 117.722 270.705 117.684 270.783C117.647 270.861 117.624 270.945 117.619 271.031C117.615 271.118 117.627 271.204 117.656 271.286C117.684 271.367 117.729 271.442 117.787 271.507C124.133 279.944 131.755 287.363 140.385 293.5C140.767 293.793 142.165 294.564 143.198 295.31C143.371 295.434 143.516 295.593 143.624 295.775C143.731 295.958 143.8 296.16 143.826 296.37C143.851 296.58 143.832 296.793 143.771 296.995C143.71 297.198 143.607 297.386 143.469 297.547C142.068 299.147 140.345 298.009 138.69 297.472C117.225 289.463 116.302 286.507 109.884 282.087C108.931 281.445 107.964 282.71 108.61 283.536C111.381 286.813 114.791 289.503 118.637 291.444C117.434 292.471 115.956 293.129 114.381 293.339C112.807 293.549 111.205 293.301 109.77 292.626Z" fill="#191919"/>
<path d="M258.98 184.253C255.535 158.059 243.051 151.524 217.545 152.952C189.129 154.532 161.56 166.601 138.431 183.903C135.718 183.838 133.006 184.038 130.333 184.5C115.209 186.755 95.9175 192.83 85.0526 203.41C83.8027 199.447 82.5004 195.535 81.1458 191.675C92.8023 182.108 96.3631 183.716 101.267 180.022C101.4 179.901 101.494 179.744 101.539 179.57C101.584 179.396 101.576 179.214 101.518 179.044C101.46 178.874 101.354 178.725 101.212 178.614C101.071 178.503 100.9 178.435 100.72 178.419C96.6634 179.046 92.8067 180.591 89.4482 182.934C86.1925 184.761 83.1266 186.904 80.2948 189.329C77.1973 180.637 73.7962 172.076 70.0915 163.648C69.4312 162.185 67.2361 163.333 67.8478 164.81C77.7746 187.374 85.4472 210.851 90.7553 234.902C91.4063 236.943 91.8458 239.043 92.0672 241.172C92.0624 244.521 88.8303 245.56 86.4573 247.138C79.9179 251.578 74.0574 256.93 69.0563 263.029C54.5449 245.103 37.164 219.542 28.6317 198.128C23.3966 186.165 21.794 172.946 24.0206 160.093C29.7894 133.531 58.0853 122.829 83.4074 109.217C83.6155 109.098 83.7698 108.904 83.8387 108.676C83.9077 108.447 83.886 108.201 83.7782 107.988C83.6704 107.775 83.4846 107.611 83.2588 107.529C83.033 107.448 82.7843 107.455 82.5636 107.549C69.4913 112.864 57.0067 119.504 45.3081 127.363C34.934 133.607 26.9795 143.134 22.7258 154.411C14.2014 180.154 27.9381 206.446 40.9633 228.06C48.833 240.963 57.558 253.333 67.0807 265.088C69.9519 268.15 72.1583 271.766 73.5631 275.71C76.6205 282.747 81.2523 296.971 88.8563 299.68C89.7628 300.041 90.7449 300.173 91.7155 300.066C92.686 299.959 93.6149 299.616 94.4197 299.067C95.3138 298.292 96.0039 297.312 96.43 296.212C98.1934 297.641 100.392 298.436 102.668 298.468C104.944 298.5 107.165 297.768 108.969 296.39C109.119 296.259 109.216 296.078 109.242 295.881C109.268 295.684 109.221 295.484 109.11 295.319C108.998 295.154 108.83 295.035 108.636 294.984C108.443 294.933 108.237 294.953 108.058 295.041C106.514 295.818 104.782 296.152 103.058 296.007C101.333 295.862 99.6833 295.243 98.2929 294.22C95.7507 292.269 93.5339 289.932 91.7239 287.296C91.0842 286.36 89.9557 287.778 90.2596 288.586C91.2597 291.072 92.8827 293.263 94.9747 294.953C95.161 295.11 94.9143 295.381 94.6906 295.704C91.5216 300.338 86.3598 294.968 84.3012 292.093C79.0388 284.771 76.788 273.483 70.8139 264.975C73.8099 261.153 77.1737 257.63 80.8578 254.455C84.7716 251.108 92.1994 246.591 92.504 246.079C99.1823 255.534 118.495 249.909 124.367 260.202C125.464 262.161 125.966 264.394 125.813 266.631C125.678 268.884 124.382 270.629 124.106 272.775C124.097 272.941 124.132 273.106 124.208 273.255C124.283 273.403 124.396 273.53 124.536 273.622C124.676 273.714 124.837 273.769 125.004 273.781C125.171 273.792 125.339 273.761 125.49 273.689C128.675 271.766 128.969 266.424 128.293 263.187C127.867 261.1 126.967 259.138 125.66 257.45C124.353 255.762 122.675 254.393 120.753 253.447C116.59 251.625 112.155 250.489 107.623 250.085C102.533 249.825 97.702 247.779 93.9926 244.311C94.738 242.09 94.729 239.688 93.967 237.474C91.6908 226.67 88.9243 215.974 85.6759 205.419C89.4455 202.883 93.0271 200.147 96.9956 197.921C108.947 191.612 122.004 187.629 135.463 186.187C122.096 196.609 110.245 208.813 100.245 222.455C99.6536 223.253 100.877 224.313 101.57 223.564C115.12 207.494 130.535 193.068 147.495 180.587C165.118 168.23 185.337 160.005 206.629 156.534C217.296 154.319 228.334 154.566 238.89 157.256C249.577 160.837 253.998 170.587 255.808 180.873C260.011 204.234 254.392 228.586 248.532 251.156C241.67 276.355 233.106 301.068 222.897 325.125C222.321 326.468 224.412 327.131 225.028 325.842C235.49 303.281 243.813 279.803 249.889 255.711C256.123 232.719 262.14 208.247 258.98 184.253ZM432.472 360.237C422.738 362.765 413.539 367.004 405.311 372.752C377.874 341.861 356.888 305.872 343.567 266.873C343.017 265.313 340.461 265.801 341.009 267.408C354.559 307.213 375.979 343.933 404.013 375.416C404.207 375.642 404.474 375.795 404.769 375.848C405.063 375.902 405.367 375.853 405.63 375.71C414.288 370.245 423.423 365.565 432.927 361.726C433.096 361.644 433.231 361.505 433.306 361.333C433.382 361.161 433.393 360.969 433.338 360.789C433.284 360.61 433.167 360.456 433.008 360.355C432.849 360.254 432.659 360.212 432.472 360.237ZM342.691 255.864C321.497 263.717 299.539 269.365 277.17 272.719C262.835 274.809 259.717 274.237 255.378 275.811C255.251 275.878 255.146 275.981 255.078 276.107C255.009 276.233 254.979 276.376 254.992 276.519C255.005 276.661 255.059 276.797 255.15 276.909C255.24 277.021 255.361 277.104 255.498 277.147C258.94 277.602 262.431 277.542 265.854 276.968C288.735 274.652 311.273 269.743 333.029 262.338C336.661 261.283 340.204 259.947 343.626 258.34C343.898 258.179 344.104 257.928 344.208 257.631C344.313 257.334 344.309 257.01 344.198 256.716C344.087 256.421 343.875 256.175 343.6 256.019C343.325 255.864 343.003 255.809 342.691 255.864Z" fill="#191919"/>
<path d="M148.818 305.664C142.38 305.986 139.314 309.474 124.478 308.599C116.053 307.832 107.818 305.631 100.112 302.088C99.9048 302.028 99.6829 302.044 99.4858 302.135C99.2886 302.226 99.1288 302.384 99.0345 302.583C98.9401 302.782 98.9173 303.008 98.9701 303.222C99.0229 303.436 99.1479 303.624 99.323 303.752C112.825 314.249 142.01 312.958 149.493 307.56C149.637 307.409 149.736 307.219 149.779 307.012C149.822 306.806 149.808 306.592 149.737 306.394C149.667 306.196 149.543 306.022 149.38 305.893C149.218 305.764 149.023 305.685 148.818 305.664Z" fill="#191919"/>
<path d="M218.912 54.4231C219.341 54.4483 219.768 54.3471 220.139 54.1321C220.51 53.9171 220.808 53.5981 220.996 53.2153C221.183 52.8325 221.252 52.4033 221.193 51.9817C221.135 51.5602 220.951 51.1653 220.666 50.8471C220.38 50.5289 220.006 50.3016 219.59 50.194C219.174 50.0863 218.735 50.1031 218.329 50.2423C217.923 50.3815 217.568 50.6369 217.308 50.976C217.049 51.3151 216.897 51.7229 216.871 52.1476C216.844 52.7156 217.042 53.2715 217.424 53.6967C217.805 54.1219 218.339 54.3826 218.912 54.4231ZM203.924 385.971C205.815 395.19 218.971 398.986 226.864 400.585C231.845 401.698 236.978 401.983 242.052 401.428C245.652 401.002 253.363 399.835 254.785 395.94C254.857 395.726 254.878 395.498 254.848 395.273C254.817 395.049 254.734 394.835 254.607 394.647C254.479 394.46 254.31 394.303 254.112 394.19C253.914 394.078 253.693 394.011 253.465 393.996C251.549 393.638 249.983 394.92 248.257 395.608C237.387 398.774 225.714 397.805 215.526 392.891C211.735 390.988 208.344 388.388 205.536 385.229C205.409 385.069 205.231 384.956 205.03 384.908C204.83 384.861 204.62 384.881 204.433 384.967C204.246 385.053 204.094 385.199 204.002 385.381C203.909 385.563 203.882 385.771 203.924 385.971ZM441.93 389.82C446.484 398.342 460.494 397.986 468.676 397.24C473.623 396.854 478.472 395.663 483.028 393.714C486.188 392.28 493.436 388.874 493.478 384.898C493.486 384.674 493.443 384.45 493.351 384.244C493.26 384.038 493.124 383.855 492.951 383.708C492.779 383.562 492.576 383.455 492.357 383.397C492.137 383.338 491.908 383.329 491.684 383.37C489.839 383.507 488.75 385.111 487.343 386.21C479.283 392.632 466.387 394.458 456.162 393.261C451.565 392.631 447.149 391.066 443.192 388.665C442.471 388.282 441.435 389.006 441.93 389.82Z" fill="#EF233C"/>
<path d="M781.573 279.881C781.434 257.356 782.728 234.936 784.559 212.561C784.571 212.174 784.47 211.792 784.267 211.462C784.064 211.131 783.768 210.866 783.415 210.7C783.062 210.533 782.669 210.472 782.281 210.524C781.894 210.575 781.531 210.738 781.236 210.991C761.442 224.843 742.609 239.997 724.865 256.35C724.524 256.678 724.31 257.115 724.261 257.584C724.212 258.053 724.332 258.524 724.598 258.915C724.864 259.305 725.261 259.591 725.718 259.721C726.175 259.851 726.664 259.817 727.099 259.626C733.407 262.837 739.799 265.881 746.27 268.755C722.506 310.288 694.305 355.195 664.856 397.285C655.33 382.684 652.323 378.669 648.952 374.111C646.861 371.387 644.619 368.779 642.237 366.301C642.475 365.682 642.517 365.005 642.357 364.361C642.198 363.717 641.844 363.136 641.343 362.696C640.842 362.257 640.217 361.978 639.553 361.899C638.888 361.819 638.215 361.942 637.623 362.252C628.081 367.165 602.635 382.76 545.674 413.583C515.117 430.144 419.78 478.23 403.578 487.339C403.133 485.482 392.764 451.111 386.123 432.118C384.597 426.778 382.612 421.578 380.188 416.574C379.16 414.791 376.873 412.175 374.268 412.478C366.3 413.404 45.4804 489.781 42.2025 490.647C36.3921 492.003 30.7006 493.817 25.1823 496.072C24.793 496.28 24.4917 496.619 24.3332 497.028C24.1746 497.437 24.1693 497.889 24.3182 498.302C24.467 498.714 24.7602 499.06 25.1445 499.277C25.5289 499.494 25.9789 499.567 26.4129 499.483C28.5297 499.13 29.1521 499.119 31.9549 498.78C37.2989 498.044 371.958 419.833 374.611 419.02C375.771 423.963 377.268 428.823 379.093 433.565C381.225 440.152 393.445 479.329 394.389 482.576C395.963 487.882 396.649 495.233 401.775 494.152C409.217 495.335 601.621 392.94 638.239 370.046C644.95 381.41 643.646 378.494 661.394 406.162C661.715 406.756 662.184 407.258 662.756 407.621C663.329 407.984 663.985 408.195 664.664 408.235C665.342 408.275 666.019 408.142 666.631 407.849C667.242 407.556 667.768 407.112 668.157 406.56C700.83 360.159 727.331 317.641 753.601 272.017C761.911 275.554 770.374 278.736 778.99 281.564C779.272 281.658 779.572 281.687 779.867 281.649C780.163 281.611 780.445 281.507 780.694 281.345C780.943 281.183 781.151 280.967 781.304 280.713C781.456 280.46 781.548 280.175 781.573 279.881Z" fill="#EF233C"/>
<path d="M630.016 297.737C627.501 296.392 624.678 295.717 621.822 295.78C622.233 293.054 622.98 290.447 623.542 287.725C623.754 286.66 622.285 285.591 621.619 286.78C620.091 289.54 619.119 292.57 618.758 295.698C615.951 295.542 613.146 296.032 610.561 297.13C610.379 297.228 610.235 297.382 610.148 297.569C610.062 297.756 610.039 297.965 610.082 298.166C610.125 298.367 610.232 298.549 610.387 298.685C610.543 298.821 610.738 298.903 610.944 298.92C613.435 299.048 615.931 299.033 618.42 298.873C617.903 302.012 618.222 305.23 619.346 308.208C619.47 308.439 619.665 308.623 619.903 308.735C620.141 308.847 620.409 308.879 620.667 308.828C620.925 308.777 621.16 308.645 621.337 308.452C621.513 308.258 621.623 308.013 621.648 307.753C621.844 304.84 621.82 301.917 621.577 299.007C624.253 299.524 626.97 299.8 629.695 299.83C630.594 299.685 630.734 298.214 630.016 297.737ZM589.621 160.079C586.937 159.102 583.99 159.102 581.306 160.081C579.985 156.646 577.596 153.718 574.486 151.722C574.269 151.587 574.011 151.534 573.759 151.571C573.506 151.608 573.275 151.733 573.107 151.924C572.938 152.115 572.844 152.359 572.841 152.612C572.837 152.866 572.925 153.112 573.088 153.308C574.986 155.703 576.653 158.269 578.07 160.972C575.612 161.611 573.327 162.784 571.382 164.406C571.222 164.548 571.114 164.738 571.074 164.946C571.034 165.155 571.064 165.371 571.16 165.561C571.256 165.751 571.412 165.904 571.604 165.997C571.796 166.091 572.014 166.118 572.224 166.077C574.587 165.483 576.822 164.481 579.094 163.731C579.536 165.22 579.809 166.752 579.906 168.301C579.842 169.751 580.006 171.202 580.391 172.601C580.496 172.798 580.649 172.964 580.837 173.084C581.025 173.204 581.241 173.274 581.464 173.287C581.687 173.3 581.91 173.256 582.111 173.159C582.312 173.062 582.484 172.915 582.611 172.732C583.825 169.561 583.733 166.044 582.355 162.94C584.814 162.822 587.236 162.302 589.525 161.401C590.004 161.085 590.15 160.309 589.621 160.079ZM748.019 119.257C750.286 116.36 751.571 112.825 751.689 109.158C751.697 108.909 751.617 108.666 751.461 108.471C751.306 108.275 751.087 108.141 750.841 108.091C750.596 108.041 750.341 108.078 750.12 108.197C749.9 108.316 749.73 108.508 749.638 108.74C748.545 111.595 747.189 114.343 745.586 116.95C743.78 115.181 741.591 113.843 739.186 113.038C738.332 112.79 737.4 113.864 738.155 114.599C739.832 116.318 741.879 117.667 743.765 119.24C740.189 123.051 738.226 122.974 736.794 124.92C736.666 125.108 736.591 125.326 736.577 125.553C736.563 125.779 736.611 126.005 736.715 126.207C736.82 126.409 736.976 126.579 737.17 126.7C737.363 126.821 737.585 126.888 737.814 126.894C739.489 126.606 741.09 125.988 742.521 125.077C743.952 124.166 745.185 122.979 746.147 121.587C747.503 123.63 749.203 125.427 751.174 126.896C751.595 127.115 752.358 126.914 752.298 126.325C751.803 123.524 750.278 121.005 748.019 119.257ZM746.245 25.7229C739.491 15.8157 728.435 6.69833 715.797 7.0317C715.621 7.02534 715.447 7.06973 715.296 7.15949C715.145 7.24925 715.024 7.38053 714.946 7.53743C714.869 7.69434 714.839 7.87016 714.86 8.04359C714.881 8.21702 714.953 8.38062 715.066 8.51461C720.094 14.7745 722.633 22.6483 722.204 30.6437C720.937 29.6146 719.473 28.8533 717.899 28.4063C716.326 27.9593 714.677 27.8361 713.054 28.0443C712.211 28.1412 712.241 29.2207 712.763 29.648C714.629 31.8342 715.915 34.4484 716.505 37.2533C717.096 40.0582 716.971 42.9652 716.144 45.7104C714.992 50.9491 712.788 55.4835 713.898 60.9545C714.743 65.4387 717.208 69.4624 720.829 72.2709C724.45 75.0794 728.979 76.4795 733.566 76.2088C751.747 75.0466 761.393 47.94 746.245 25.7229ZM736.293 62.2087C735.323 62.5935 734.271 62.7303 733.234 62.6063C732.196 62.4824 731.207 62.1018 730.357 61.4994C729.506 60.8971 728.822 60.0923 728.366 59.159C727.911 58.2257 727.699 57.1937 727.75 56.1577C727.292 54.2998 727.526 52.3399 728.41 50.6402C729.294 48.9404 730.767 47.6154 732.559 46.91C734.555 46.5464 736.616 46.9552 738.318 48.0525C740.021 49.1498 741.235 50.8524 741.713 52.8108C742.191 54.7693 741.895 56.8351 740.887 58.5843C739.879 60.3335 738.235 61.6334 736.293 62.2173L736.293 62.2087ZM695.309 152.794C686.015 135.491 669.846 118.58 649.242 116.483C649.087 116.477 648.932 116.51 648.794 116.58C648.655 116.649 648.536 116.753 648.449 116.881C648.363 117.009 648.31 117.157 648.297 117.311C648.284 117.465 648.311 117.619 648.375 117.76C655.906 130.315 658.338 145.245 655.177 159.517C653.339 157.219 651.01 155.355 648.358 154.061C645.706 152.766 642.796 152.073 639.841 152.032C639.666 152.027 639.493 152.073 639.343 152.163C639.194 152.253 639.073 152.384 638.996 152.54C638.919 152.696 638.889 152.871 638.909 153.044C638.929 153.217 638.999 153.38 639.11 153.515L639.248 153.669C639.249 153.79 639.276 153.909 639.327 154.019C641.859 158.09 643.392 162.695 643.802 167.463C644.213 172.23 643.49 177.027 641.692 181.466C638.737 190.284 633.29 197.783 633.652 207.469C633.861 215.549 637.143 223.25 642.839 229.024C648.535 234.798 656.223 238.216 664.355 238.59C695.415 239.945 717.912 194.891 695.309 152.794ZM666.979 219.851C659.646 221.661 653.046 218.25 652.743 205.899C652.524 196.864 659.625 189.295 667.974 192.14C670.72 193.195 673.114 194.993 674.884 197.33C676.654 199.666 677.73 202.448 677.99 205.36C678.146 208.672 677.131 211.933 675.121 214.58C673.11 217.226 670.229 219.091 666.979 219.851ZM848.678 118.944C847.464 102.961 841.058 84.9966 826.429 76.5223C826.276 76.4306 826.1 76.3844 825.922 76.3894C825.744 76.3943 825.571 76.4502 825.424 76.5502C825.277 76.6502 825.162 76.7902 825.093 76.9534C825.024 77.1167 825.003 77.2962 825.034 77.4704C826.341 89.3487 823.082 101.279 815.909 110.875C815.266 108.534 814.113 106.361 812.531 104.511C810.949 102.661 808.977 101.178 806.755 100.167C806.638 100.126 806.513 100.11 806.389 100.12C806.265 100.131 806.145 100.168 806.037 100.228C805.929 100.289 805.835 100.372 805.762 100.472C805.689 100.572 805.638 100.686 805.614 100.807C805.415 101.731 809.144 112.266 796.744 124.425C791.117 129.939 784.992 133.901 782.304 141.602C780.07 147.816 780.235 154.632 782.768 160.732C785.3 166.832 790.019 171.784 796.014 174.631C819.084 185.646 851.75 159.012 848.678 118.944ZM817.987 157.187C812.729 171.18 789.403 163.207 799.072 149.15C800.222 146.536 802.313 144.443 804.936 143.279C807.559 142.116 810.524 141.966 813.252 142.86C815.614 144.312 817.384 146.546 818.25 149.166C819.116 151.787 819.023 154.627 817.987 157.187Z" fill="#EF233C"/>
<path d="M239.203 26.1553C238.635 23.416 237.313 20.8849 235.382 18.8418C233.451 16.7986 230.987 15.3229 228.262 14.5777C226.493 14.3272 225.02 14.8772 223.325 14.1879C221.765 13.3466 220.282 12.3739 218.891 11.2806C211.505 6.75797 200.101 6.039 188.45 12.93C174.622 21.1514 165.979 35.4353 153.348 45.1858C125.935 66.376 86.9071 73.5865 68.4547 95.9799C68.3295 96.1669 68.2495 96.3798 68.2207 96.6022C68.1919 96.8246 68.2151 97.0507 68.2886 97.2629C68.362 97.475 68.4838 97.6677 68.6444 97.8261C68.8051 97.9844 69.0004 98.1041 69.2152 98.1761C82.1205 101.29 90.6195 112.526 95.1724 124.269C100.794 138.799 101.13 154.774 105.592 169.632C105.646 169.842 105.746 170.037 105.886 170.204C106.026 170.371 106.201 170.506 106.4 170.597C106.598 170.689 106.815 170.736 107.034 170.734C107.253 170.733 107.469 170.683 107.667 170.589C144.121 155.133 174.124 128.837 180.594 90.3085C182.674 77.953 182.879 63.766 192.268 54.3194C200.866 45.6566 213.622 42.9785 222.679 34.9323C224.895 40.1407 228.357 44.739 232.767 48.3314C232.34 52.1314 231.917 55.9273 231.392 59.6743C229.814 59.5813 225.05 55.9446 221.229 60.5472C220.802 61.0599 221.546 61.8567 222.11 61.5285C226.563 59.0155 227.711 61.2818 231.06 61.9567C230.625 65.046 230.094 68.1214 229.468 71.1784C228.087 77.6674 226.263 84.965 220.23 88.7791C217.477 90.3713 214.389 91.314 211.206 91.534C208.024 91.754 204.833 91.2454 201.881 90.0477C194.898 87.4334 190.645 82.2305 185.49 77.267C184.596 76.4312 182.806 77.4058 183.576 78.5784C186.277 82.6583 189.813 86.1332 193.956 88.7791C198.098 91.425 202.755 93.1831 207.626 93.9401C207.29 95.1606 207.099 96.4158 207.058 97.6802C206.907 98.5043 206.922 99.3498 207.102 100.168C207.282 100.987 207.624 101.762 208.108 102.449C208.224 102.572 208.37 102.664 208.531 102.715C208.693 102.766 208.865 102.775 209.031 102.742C209.197 102.709 209.352 102.634 209.48 102.524C209.609 102.415 209.707 102.274 209.764 102.117C210.09 100.712 210.092 99.254 209.772 97.8486C209.753 96.5567 209.973 95.3606 210.049 94.0914C213.533 94.1663 216.977 93.3558 220.053 91.7375C223.02 89.8855 225.545 87.4205 227.457 84.5118C229.369 81.603 230.622 78.3194 231.13 74.8863C233.239 66.6287 234.331 58.1488 234.382 49.6313C234.476 49.7358 234.62 49.7916 234.714 49.8961C234.896 50.0096 235.101 50.0815 235.315 50.1067C235.528 50.1319 235.745 50.1097 235.948 50.0418C236.152 49.9738 236.338 49.8618 236.492 49.7139C236.647 49.5659 236.766 49.3858 236.841 49.1866C240.374 42.033 241.212 33.8668 239.203 26.1553ZM207.103 14.9494C203.733 15.2818 200.421 16.0426 197.248 17.213C193.979 18.832 192.368 21.6802 189.57 23.7228C188.844 24.2179 187.531 23.8479 187.692 22.829C188.749 15.9251 200.99 10.2263 207.214 13.0928C207.412 13.1645 207.582 13.2975 207.698 13.4722C207.814 13.6468 207.87 13.8537 207.857 14.0622C207.845 14.2707 207.765 14.4696 207.629 14.6294C207.493 14.7892 207.308 14.9014 207.103 14.9494ZM326.122 174.247C325.725 174.271 325.278 174.244 324.88 174.272C306.18 174.935 281.402 183.359 264.284 190.806C263.391 191.184 263.917 192.794 264.881 192.459C283.579 186.452 307.862 176.489 327.528 177.075C327.028 176.147 326.559 175.204 326.122 174.247ZM443.588 334.627C440.032 321.35 436.005 308.097 431.6 295.041C430.784 295.525 429.877 295.839 428.934 295.964C433.379 308.924 437.241 322.046 440.912 335.205C441.372 336.902 444.042 336.341 443.588 334.627ZM424.365 269.805C424.296 269.679 424.188 269.578 424.056 269.518C423.924 269.458 423.776 269.442 423.634 269.473C423.492 269.503 423.364 269.579 423.27 269.687C423.175 269.796 423.119 269.932 423.109 270.076C423.013 273.353 424.012 276.798 424.25 280.095C424.768 288.591 424.074 297.116 422.19 305.42C422.014 307.102 421.471 308.726 420.6 310.18C417.865 313.203 417.198 307.398 416.708 303.088C416.466 293.083 415.236 283.124 413.036 273.355C412.978 273.164 412.849 273.003 412.675 272.902C412.502 272.802 412.296 272.77 412.1 272.812C411.903 272.855 411.73 272.97 411.615 273.133C411.501 273.296 411.452 273.497 411.48 273.694C411.762 275.823 412.095 277.959 412.333 280.086C403.222 280.754 400.375 273.358 401.924 264.353C403.066 257.704 405.789 251.096 403.117 244.42C402.811 243.713 401.646 244.135 401.784 244.879C404.029 253.742 398.587 261.949 399.435 270.824C399.612 274.147 401.055 277.28 403.474 279.594C404.689 280.686 406.141 281.488 407.719 281.936C409.297 282.385 410.958 282.469 412.573 282.183C413.301 287.978 413.966 293.736 414.269 299.649C414.434 302.696 414.288 315.092 420.211 313.04C423.195 312.037 423.554 308.074 424.033 305.52C425.76 297.455 426.354 289.192 425.799 280.965C425.958 277.192 425.473 273.42 424.365 269.805Z" fill="#191919"/>
<path d="M432.579 267.542C432.464 267.43 432.319 267.351 432.162 267.316C432.004 267.281 431.84 267.29 431.687 267.343C431.534 267.395 431.399 267.489 431.297 267.613C431.195 267.738 431.13 267.888 431.11 268.048C431.295 270.158 431.702 272.243 432.324 274.27C432.72 276.621 432.892 279.004 432.837 281.388C432.889 283.629 432.218 285.828 430.923 287.664C429.629 289.5 427.778 290.877 425.64 291.594C425.501 291.67 425.39 291.787 425.322 291.929C425.255 292.072 425.234 292.232 425.264 292.386C425.293 292.541 425.371 292.682 425.486 292.79C425.601 292.898 425.747 292.967 425.904 292.987C428.114 292.742 430.183 291.785 431.794 290.262C433.406 288.74 434.472 286.735 434.83 284.555C435.312 281.574 435.327 278.537 434.873 275.552C434.84 272.726 434.048 269.961 432.579 267.542ZM440.021 263.994C439.921 263.88 439.79 263.799 439.643 263.76C439.496 263.721 439.341 263.727 439.198 263.777C439.054 263.826 438.929 263.917 438.839 264.038C438.748 264.159 438.696 264.305 438.689 264.455C438.435 266.6 440.296 269.124 441.038 274.882C441.55 278.752 441.105 285.317 436.063 285.958C435.266 286.058 435.392 287.296 436.18 287.343C440.669 287.659 442.703 282.656 443.071 278.989C443.267 276.352 443.058 273.7 442.45 271.126C442.322 268.57 441.48 266.101 440.021 263.994Z" fill="#191919"/>
<path d="M441.177 249.107C435.692 241.78 427.116 237.42 422.38 229.397C421.983 228.741 420.708 229.055 421.009 229.855C423.816 237.76 431.757 242.078 437.214 248.049C440.422 251.599 442.766 255.815 444.069 260.38C445.371 264.945 445.599 269.738 444.735 274.399C444.5 275.847 446.781 275.93 447.061 274.536C447.899 270.131 447.81 265.603 446.798 261.23C445.786 256.857 443.873 252.732 441.177 249.107Z" fill="#191919"/>
<path d="M423.837 227.362C408.162 193.054 381.698 152.877 354.45 129.715C331.524 110.436 303.79 97.6046 274.147 92.5622C232.741 84.6737 228.902 99.0508 210.162 104.514C205.486 105.878 200.521 105.942 195.81 104.699C193.523 104.34 191.332 103.53 189.367 102.318C187.402 101.105 185.702 99.5142 184.37 97.6395C184.227 97.3904 183.992 97.2055 183.715 97.1235C183.438 97.0414 183.14 97.0685 182.882 97.1992C182.625 97.3298 182.428 97.5538 182.334 97.8245C182.239 98.0952 182.254 98.3915 182.375 98.6516C185.287 104.721 193.187 107.2 199.434 107.96C215.025 109.849 226.702 97.1017 240.219 93.9787C255.393 90.4703 276.42 95.102 291.273 99.1414C310.398 104.424 328.379 113.145 344.319 124.867C375.524 147.831 404.499 191.39 420.944 227.097C415.382 229.24 410.441 232.711 406.56 237.201C406.466 237.315 406.391 237.443 406.337 237.58C404.65 239.205 403.013 240.872 401.424 242.546C381.702 226.356 363.124 208.847 345.82 190.142C340.665 184 335.96 177.502 331.742 170.695C331.376 170.182 330.407 170.664 330.615 171.267C336.897 189.995 385.618 232.238 400.993 244.931C401.187 245.069 401.423 245.138 401.661 245.125C401.899 245.112 402.126 245.02 402.304 244.862C404.008 242.944 405.799 241.187 407.597 239.375C407.729 239.279 407.851 239.171 407.961 239.051C408.015 239.007 408.069 238.911 408.124 238.867C411.547 234.941 415.863 231.878 420.718 229.929C420.717 229.942 420.722 229.954 420.73 229.963C420.738 229.973 420.75 229.978 420.763 229.979L423.658 228.826C423.809 228.616 423.904 228.372 423.936 228.117C423.967 227.861 423.933 227.602 423.837 227.362Z" fill="#191919"/>
<path d="M498.066 314.543C496.435 306.514 492.278 290.812 490.137 282.951C489.478 279.509 488.397 276.159 486.917 272.974C486.525 272.264 485.26 272.447 485.309 273.309C485.359 276.391 486.028 278.449 490.229 293.857C492.135 300.918 494.045 307.98 496.367 314.919C496.418 315.142 496.556 315.335 496.752 315.457C496.947 315.579 497.183 315.619 497.408 315.569C497.633 315.519 497.829 315.383 497.952 315.19C498.076 314.998 498.116 314.765 498.066 314.543ZM531.007 314.366C534.419 304.736 536.955 294.824 538.585 284.749C539.423 281.509 539.723 278.156 539.475 274.821C539.375 274.029 538.277 274.114 538.044 274.736C536.299 278.804 536.932 286.039 529.308 313.811C529.259 314.025 529.294 314.25 529.404 314.441C529.514 314.632 529.692 314.776 529.903 314.845C530.115 314.915 530.345 314.904 530.549 314.815C530.752 314.727 530.916 314.566 531.007 314.366ZM562.649 325.202C573.118 316.738 582.95 307.535 592.069 297.666C592.814 296.782 591.398 295.574 590.559 296.353C585.677 300.914 581.071 305.732 576.282 310.342C571.492 314.951 566.561 319.458 561.671 324.083C561.552 324.219 561.486 324.392 561.486 324.571C561.486 324.75 561.551 324.924 561.67 325.06C561.788 325.195 561.953 325.285 562.132 325.311C562.312 325.337 562.495 325.298 562.649 325.202ZM295.998 350.452C292.116 341.634 285.611 328.585 282.777 322.707C281.527 319.667 279.95 316.77 278.072 314.063C277.952 313.936 277.793 313.852 277.62 313.822C277.447 313.792 277.269 313.819 277.112 313.898C276.956 313.977 276.83 314.105 276.754 314.261C276.677 314.417 276.655 314.593 276.689 314.763C277.658 317.895 278.975 320.911 280.617 323.756C282.12 326.782 291.186 345.178 294.397 351.238C294.503 351.448 294.688 351.607 294.913 351.682C295.138 351.756 295.384 351.74 295.596 351.635C295.808 351.531 295.97 351.348 296.045 351.126C296.121 350.904 296.103 350.662 295.998 350.452ZM316.351 350.135C318.552 340.778 320.09 329.908 321.51 320.294C322.204 317.066 322.485 313.764 322.346 310.465C322.246 309.601 321.007 309.652 320.716 310.369C319.825 313.417 319.304 316.558 319.163 319.726C318.715 323.076 315.92 343.221 315.071 349.927C314.88 350.637 316.17 350.91 316.351 350.135ZM336.375 360.269C340.493 356.256 344.309 351.98 348.139 347.7C352.142 343.888 355.794 339.731 359.049 335.278C359.145 335.107 359.178 334.909 359.144 334.717C359.109 334.525 359.01 334.35 358.861 334.221C358.713 334.092 358.524 334.017 358.327 334.008C358.129 334 357.935 334.057 357.775 334.172C355.599 336.043 353.599 338.104 351.801 340.331C346.446 346.321 340.421 352.803 335.15 359.218C334.612 359.916 335.751 360.877 336.375 360.269Z" fill="#EF233C"/>
</svg>
